<?xml version="1.0" encoding="UTF-8" standalone="no"?>
<!-- Created with Inkscape (http://www.inkscape.org/) -->

<svg
   xmlns:dc="http://purl.org/dc/elements/1.1/"
   xmlns:cc="http://creativecommons.org/ns#"
   xmlns:rdf="http://www.w3.org/1999/02/22-rdf-syntax-ns#"
   xmlns:svg="http://www.w3.org/2000/svg"
   xmlns="http://www.w3.org/2000/svg"
   xmlns:sodipodi="http://sodipodi.sourceforge.net/DTD/sodipodi-0.dtd"
   xmlns:inkscape="http://www.inkscape.org/namespaces/inkscape"
   width="210mm"
   height="297mm"
   viewBox="0 0 210 297"
   version="1.1"
   id="svg3882"
   inkscape:version="0.92.3 (2405546, 2018-03-11)"
   sodipodi:docname="UNDREGROUND.svg">
  <defs
     id="defs3876" />
  <sodipodi:namedview
     id="base"
     pagecolor="#ffffff"
     bordercolor="#666666"
     borderopacity="1.0"
     inkscape:pageopacity="0.0"
     inkscape:pageshadow="2"
     inkscape:zoom="0.76"
     inkscape:cx="400"
     inkscape:cy="551.64054"
     inkscape:document-units="mm"
     inkscape:current-layer="layer1"
     showgrid="false"
     inkscape:window-width="1920"
     inkscape:window-height="1025"
     inkscape:window-x="0"
     inkscape:window-y="27"
     inkscape:window-maximized="1" />
  <metadata
     id="metadata3879">
    <rdf:RDF>
      <cc:Work
         rdf:about="">
        <dc:format>image/svg+xml</dc:format>
        <dc:type
           rdf:resource="http://purl.org/dc/dcmitype/StillImage" />
        <dc:title></dc:title>
      </cc:Work>
    </rdf:RDF>
  </metadata>
  <g
     inkscape:label="Capa 1"
     inkscape:groupmode="layer"
     id="layer1">
    <ellipse
       style="fill:#e6e6e6;stroke-width:0.26458332"
       id="path3892"
       cx="101.62405"
       cy="125.22128"
       rx="79.174561"
       ry="67.548927" />
    <path
       style="fill:#ff0000;stroke-width:1.40845072"
       d="M 351.12676,726.91059 C 307.62997,722.07704 272.31094,712.27162 237.04225,695.23794 156.72408,656.44679 101.64633,587.92442 88.371781,510.27665 84.626868,488.37125 84.666836,458.22366 88.470284,435.97589 109.80168,311.2006 235.8812,218.48478 384.22535,218.48478 c 112.96397,0 216.42066,54.31483 266.93776,140.1425 13.25444,22.51904 21.93921,44.8673 27.64002,71.1251 2.76494,12.73527 3.2066,18.79787 3.18074,43.66197 -0.0254,24.35147 -0.51345,31.11158 -3.11694,43.16586 -6.5422,30.29065 -17.98079,56.88524 -36.56069,85.00316 -13.21066,19.99235 -44.57675,52.02605 -65.12314,66.50926 -43.13003,30.40247 -89.59992,48.71303 -144.3662,56.88471 -16.89541,2.52097 -65.95363,3.68196 -81.69014,1.93325 z"
       id="path3897"
       inkscape:connector-curvature="0"
       transform="scale(0.26458333)" />
    <ellipse
       style="fill:#ffffff;stroke-width:0.28847778"
       id="path3899"
       cx="99.68457"
       cy="123.53021"
       rx="50.121769"
       ry="43.414024" />
    <rect
       style="fill:#cccccc;stroke-width:0.26458332"
       id="rect3912"
       width="178.87323"
       height="25.340376"
       x="9.9375219"
       y="109.21714"
       transform="rotate(-0.23389882)" />
    <text
       xml:space="preserve"
       style="font-style:normal;font-weight:normal;font-size:20.27317619px;line-height:1.25;font-family:sans-serif;letter-spacing:0px;word-spacing:0px;fill:#000000;fill-opacity:1;stroke:none;stroke-width:0.50682938"
       x="19.827124"
       y="128.49896"
       id="text3916"
       transform="scale(0.99196761,1.0080974)"><tspan
         sodipodi:role="line"
         id="tspan3914"
         x="19.827124"
         y="128.49896"
         style="stroke-width:0.50682938">UNDERGROUND</tspan></text>
    <path
       style="fill:#0000ff;stroke-width:1.40845072"
       d="m 39.920143,460.98427 c -0.562329,-25.81542 -0.795034,-47.16451 -0.517122,-47.44242 0.277912,-0.27791 129.156209,-0.86691 286.396209,-1.30889 157.24,-0.44198 309.18316,-1.15561 337.65147,-1.58584 l 51.76057,-0.78225 v 47.79783 47.79782 l -316.5493,0.91874 C 224.55986,506.88457 72.8494,507.43827 61.527617,507.6097 l -20.585058,0.3117 z m 75.291127,26.75848 c 7.16871,-5.20544 8.44613,-10.30007 8.44851,-33.69459 l 0.002,-21.47888 h -4.12843 -4.12844 l -0.44903,22.66278 c -0.43308,21.85807 -0.56709,22.75827 -3.77408,25.35211 -4.99367,4.03894 -14.315631,3.62858 -18.489122,-0.81389 -3.086548,-3.28548 -3.332393,-4.86131 -3.955181,-25.35212 L 88.073623,432.56928 H 84.036811 80 l 0.0079,19.3662 c 0.0086,21.06512 1.276795,28.0708 6.043623,33.38431 5.902058,6.57897 21.635837,7.88634 29.159757,2.42296 z m 278.87324,0.0552 4.92957,-2.41176 0.40498,-13.02817 0.40495,-13.02817 h -10.70978 -10.70978 l 0.44566,3.87324 c 0.39878,3.4658 1.07534,3.9188 6.43158,4.30634 l 5.98592,0.43309 v 6.797 c 0,7.82111 -1.07698,8.4821 -13.87324,8.51476 -6.64722,0.017 -8.07862,-0.52417 -12.14634,-4.5919 -8.01604,-8.01603 -8.45031,-25.248 -0.85065,-33.75349 3.39256,-3.79695 5.06403,-4.46611 12.49893,-5.0039 7.27865,-0.52649 9.55739,-0.076 14.99811,2.96484 l 6.41544,3.58566 v -4.66995 c 0,-4.00265 -0.74644,-5.02415 -5.22386,-7.14883 -3.24521,-1.53995 -8.71993,-2.51089 -14.45387,-2.5634 -18.4095,-0.16857 -28.20959,9.95686 -28.20959,29.14606 0,20.78196 11.18923,31.50607 30.98591,29.69789 4.26056,-0.38915 9.96479,-1.79285 12.67606,-3.11931 z m 107.07253,0.38948 c 2.3139,-1.19656 5.94734,-4.80521 8.07433,-8.01922 3.20994,-4.85045 3.95207,-7.70883 4.36645,-16.81777 0.41546,-9.13265 -0.0268,-12.06068 -2.63541,-17.44944 -7.64244,-15.78716 -28.37823,-19.06419 -40.96796,-6.47446 -11.03068,11.03067 -11.22853,31.85032 -0.41644,43.81802 7.53334,8.3385 20.95123,10.43872 31.57903,4.94287 z m 57.7162,-0.44468 c 7.16872,-5.20544 8.44613,-10.30007 8.44852,-33.69459 l 0.002,-21.47888 h -4.22535 -4.22535 v 19.50814 c 0,27.01625 -1.83865,31.19609 -13.72272,31.19609 -10.97042,0 -12.95231,-4.99067 -13.00424,-32.74648 l -0.0336,-17.95775 h -4.22536 -4.22535 l 0.008,20.07043 c 0.008,22.31637 1.18675,28.61871 6.23602,33.36224 6.45301,6.0623 21.75002,6.98158 28.96739,1.7408 z m -414.04202,-20.31431 0.0425,-22.88733 12.03464,22.88733 12.03464,22.88732 H 174.4715 180 v -28.87324 -28.87324 h -4.18959 -4.18958 l -0.38788,21.99323 -0.38788,21.99322 -11.26761,-21.96671 -11.2676,-21.96672 -5.98592,-0.0265 -5.98591,-0.0265 v 28.87324 28.87324 h 4.22535 4.22535 l 0.0425,-22.88732 z m 84.4511,18.55199 c 8.49738,-4.73962 11.90703,-11.7662 11.90703,-24.53791 0,-12.77171 -3.40965,-19.79829 -11.90703,-24.53791 -5.04508,-2.81402 -8.66109,-3.52436 -20.65673,-4.05786 l -14.54108,-0.64671 v 29.24248 29.24248 l 14.54108,-0.64671 c 11.99564,-0.5335 15.61165,-1.24384 20.65673,-4.05786 z m 59.87261,0.10998 c 0,-3.50075 -0.0835,-3.52345 -14.43662,-3.92251 l -14.43662,-0.40139 v -9.10565 -9.10566 h 13.38028 13.38028 v -4.22535 -4.22536 h -13.38028 -13.38028 v -6.99125 -6.99125 l 13.73239,-0.40311 13.7324,-0.40312 0.44566,-3.87324 0.44566,-3.87324 h -18.40341 -18.4034 v 28.91412 28.91412 l 18.66197,-0.39299 18.66197,-0.39299 z m 20.42253,-7.74648 V 466.3721 h 5.32041 c 7.43227,0 10.16293,2.41668 15.72634,13.91804 4.56127,9.42963 5.12644,10.02562 9.50704,10.02562 2.56162,0 4.65748,-0.33272 4.65748,-0.73938 0,-1.66385 -9.74241,-19.93228 -12.3405,-23.14025 l -2.79988,-3.45709 3.18345,-2.5041 c 3.95874,-3.11394 5.57489,-11.07419 3.51535,-17.31463 -2.50088,-7.57774 -7.17238,-9.68843 -22.89645,-10.34513 l -13.73239,-0.57352 v 29.03705 29.03705 h 4.92958 4.92957 z m 111.26761,0 V 466.3721 h 5.32041 c 7.45084,0 10.91003,2.9633 16.56307,14.18873 4.42882,8.79446 5.32679,9.75493 9.12014,9.75493 2.31421,0 4.20765,-0.33272 4.20765,-0.73938 0,-1.63971 -10.32796,-21.2682 -12.46165,-23.6836 -2.07835,-2.35276 -2.08515,-2.74276 -0.0737,-4.22536 3.38942,-2.49821 5.49525,-7.29158 5.47229,-12.45625 -0.0523,-11.76846 -7.35997,-16.63638 -24.97924,-16.6397 l -11.61971,-0.002 v 28.87324 28.87324 h 4.22535 4.22535 z m 167.63811,-10.91549 0.0325,-22.88733 12.02446,22.88733 12.02448,22.88732 h 5.54868 5.54869 v -28.87324 -28.87324 h -4.18959 -4.18958 l -0.38789,22.07826 -0.38793,22.07826 -11.29207,-21.72615 -11.29207,-21.72614 -5.96145,-0.4331 L 580,432.40732 v 28.95422 28.95422 h 4.22535 4.22535 l 0.0325,-22.88732 z m 84.1035,18.87273 c 8.38239,-4.30652 12.08473,-11.92234 12.08473,-24.85865 0,-20.47201 -7.94589,-27.46283 -32.48831,-28.58335 l -14.43662,-0.65913 v 29.24248 29.24248 l 14.43662,-0.65912 c 11.13766,-0.50851 15.80015,-1.35965 20.40358,-3.72471 z"
       id="path3918"
       inkscape:connector-curvature="0"
       transform="scale(0.26458333)" />
    <path
       style="fill:#0000ff;stroke-width:1.40845072"
       d="m 202.53521,461.44252 v -22.19483 l 8.71336,0.9858 c 4.79235,0.54219 10.5465,1.93376 12.78701,3.09237 10.80121,5.58553 10.80121,30.6478 0,36.23332 -2.24051,1.15861 -7.99466,2.55018 -12.78701,3.09237 l -8.71336,0.98581 z"
       id="path3920"
       inkscape:connector-curvature="0"
       transform="scale(0.26458333)" />
    <path
       style="fill:#0000ff;stroke-width:1.40845072"
       d="m 309.57746,449.47069 v -9.85915 h 4.01518 c 6.86338,0 12.83124,2.81162 13.75164,6.47877 2.12235,8.45613 -2.54883,13.23954 -12.92893,13.23954 h -4.83789 z"
       id="path3922"
       inkscape:connector-curvature="0"
       transform="scale(0.26458333)" />
    <path
       style="fill:#0000ff;stroke-width:1.40845072"
       d="m 420.84507,449.47069 v -10.21755 l 7.14742,0.68678 c 8.3594,0.80323 11.63192,3.48462 11.63192,9.53077 0,6.04615 -3.27252,8.72754 -11.63192,9.53077 l -7.14742,0.68678 z"
       id="path3924"
       inkscape:connector-curvature="0"
       transform="scale(0.26458333)" />
    <path
       style="fill:#0000ff;stroke-width:1.40845072"
       d="m 478.75616,480.97676 c -4.57918,-3.20739 -7.20686,-10.32973 -7.20686,-19.53424 0,-14.38148 5.52705,-21.83098 16.19718,-21.83098 7.21669,0 11.5656,3.03279 14.91021,10.39788 4.68989,10.3275 2.58193,23.69667 -4.70283,29.82638 -4.88298,4.10876 -14.17235,4.66085 -19.1977,1.14096 z"
       id="path3926"
       inkscape:connector-curvature="0"
       transform="scale(0.26458333)" />
    <path
       style="fill:#0000ff;stroke-width:1.40845072"
       d="m 646.19718,461.44252 v -22.19483 l 8.71336,0.9858 c 4.79235,0.54219 10.5465,1.93376 12.78701,3.09237 10.80121,5.58553 10.80121,30.6478 0,36.23332 -2.24051,1.15861 -7.99466,2.55018 -12.78701,3.09237 l -8.71336,0.98581 z"
       id="path3928"
       inkscape:connector-curvature="0"
       transform="scale(0.26458333)" />
    <path
       style="fill:#f9f9f9;stroke-width:1.40845072"
       d="m 639.15493,461.44252 v -27.79241 l 13.767,0.55295 c 15.44804,0.62048 21.34465,2.99638 26.52882,10.68918 5.79414,8.59791 5.80703,24.48352 0.0268,33.06075 -5.21171,7.73365 -11.08784,10.10772 -26.55565,10.72899 l -13.76701,0.55296 z m 28.04234,19.93069 c 6.75515,-3.22553 9.2816,-8.65066 9.2816,-19.93069 0,-16.12673 -5.11374,-21.29947 -21.84664,-22.09869 l -9.13927,-0.43652 -0.39143,21.06489 c -0.21528,11.58568 -0.053,21.94676 0.3606,23.02462 0.58919,1.53541 2.65626,1.74728 9.54636,0.97848 4.83688,-0.5397 10.32183,-1.71064 12.18878,-2.60209 z"
       id="path3930"
       inkscape:connector-curvature="0"
       transform="scale(0.26458333)" />
    <path
       style="fill:#0000ff;stroke-width:1.40845072"
       d="M 41.476856,497.66267 C 40.985458,492.4599 40.5789,471.64211 40.573393,451.40092 l -0.01001,-36.80217 96.126757,-0.84275 c 52.86972,-0.46351 199.43662,-1.18611 325.70423,-1.60577 126.2676,-0.41965 234.80633,-1.16097 241.19718,-1.64737 l 11.61972,-0.88436 v 47.22079 47.22079 l -103.16902,0.84359 c -56.74295,0.46397 -208.13217,1.15296 -336.42048,1.53109 l -233.251461,0.6875 z m 71.678514,-8.17248 c 8.87711,-4.21246 9.74853,-7.03959 10.27321,-33.32936 l 0.47082,-23.59155 h -4.13739 -4.1374 l -0.9109,10.77589 c -0.50099,5.92673 -0.91089,15.68046 -0.91089,21.67495 0,13.70299 -2.19077,17.11574 -11.13784,17.35034 -4.973965,0.13042 -6.640104,-0.53666 -9.424018,-3.77315 -2.839203,-3.30077 -3.383162,-5.44437 -3.390249,-13.36009 -0.0046,-5.18568 -0.415485,-14.65737 -0.912982,-21.04822 L 88.03319,432.56928 h -4.137776 -4.137776 l 0.473293,23.13999 c 0.424477,20.75328 0.774161,23.54973 3.390315,27.11267 6.113747,8.32632 19.615774,11.37482 29.534124,6.66825 z m 110.79893,-0.7615 c 6.97442,-1.74458 14.51719,-9.1005 16.44235,-16.03502 3.53001,-12.71538 0.98729,-25.71772 -6.38997,-32.67537 -5.70224,-5.37791 -10.98261,-6.89789 -27.59823,-7.94425 l -12.32394,-0.7761 v 30.14457 30.14457 l 12.32394,-0.7761 c 6.77817,-0.42685 14.6738,-1.36389 17.54585,-2.0823 z m 65.63884,-2.36348 c -0.43703,-3.78568 -0.47622,-3.79783 -14.52272,-4.50015 l -14.0845,-0.70423 -0.41933,-8.80282 -0.41931,-8.80281 h 13.44748 13.44749 v -4.22535 -4.22536 H 273.5848 260.12735 l 0.42928,-6.69014 0.42929,-6.69014 13.57974,-0.40127 13.57976,-0.40128 0.61293,-4.17619 0.61293,-4.17619 h -18.77014 -18.77015 l -0.003,29.22535 -0.003,29.22536 19.10255,-0.42943 19.10255,-0.42943 -0.4382,-3.79592 z m 104.84348,1.75959 5.28169,-2.55612 v -13.11941 -13.11942 h -11.1458 -11.14579 l 1.02903,3.87324 c 0.85255,3.20894 1.97908,3.99402 6.56833,4.57746 4.93677,0.62762 5.58436,1.16384 5.95346,4.92958 0.6968,7.10886 -2.0973,9.28807 -12.09044,9.42976 -9.5298,0.13513 -12.83606,-1.65431 -16.63693,-9.00438 -2.59306,-5.01442 -2.5153,-18.52194 0.1362,-23.64926 3.3216,-6.42329 7.39639,-8.46687 16.87073,-8.461 5.99794,0.004 9.84282,0.83043 13.10093,2.8169 2.53628,1.5464 4.91304,2.81164 5.28165,2.81164 0.3686,0 0.67018,-2.20203 0.67018,-4.89341 0,-5.59934 -3.54607,-8.16033 -13.6148,-9.83271 -20.74129,-3.44504 -34.27252,8.06546 -34.27252,29.1543 0,20.97277 10.22415,31.40481 29.57746,30.17887 5.03521,-0.31896 11.53169,-1.73017 14.43662,-3.13604 z m 105.18155,1.13243 c 2.65618,-1.35442 6.7759,-4.89717 9.15493,-7.87277 3.96228,-4.95588 4.36618,-6.44668 4.81014,-17.75406 0.67446,-17.17851 -3.47582,-25.22408 -15.6318,-30.30318 -12.7081,-5.30978 -26.80502,0.40873 -33.58147,13.62257 -5.48552,10.69658 -2.49487,29.60119 5.96271,37.69168 7.49478,7.16949 20.31474,9.19008 29.28549,4.61576 z m 57.19917,0.23296 c 8.87711,-4.21246 9.74853,-7.03959 10.27321,-33.32936 l 0.47083,-23.59155 h -4.12532 -4.12534 l -0.93654,20.61121 c -0.52262,11.50164 -1.70866,22.21546 -2.68353,24.24099 -1.90019,3.94809 -8.12871,5.99154 -14.53166,4.76753 -5.58143,-1.06695 -7.27979,-7.03031 -8.42444,-29.58017 l -1.01724,-20.03956 h -4.02766 -4.02768 v 21.09826 c 0,25.91107 1.60958,31.3698 10.43114,35.37614 7.1031,3.2259 16.47888,3.41013 22.72423,0.44651 z m 105.85807,-0.0231 c 8.64441,-0.87908 15.331,-4.96698 19.35393,-11.83219 2.27465,-3.88172 2.87489,-7.31126 2.83401,-16.19239 -0.1,-21.72064 -7.05666,-27.38298 -36.20138,-29.46572 l -10.91549,-0.78005 v 30.33367 30.33367 l 8.80282,-0.82614 c 4.84155,-0.45437 12.09829,-1.16126 16.12611,-1.57085 z m -517.57125,-20.63021 0.3888,-21.47888 11.2676,21.45877 11.26761,21.45877 5.98591,0.0201 5.98592,0.0201 V 461.4425 432.56926 h -4.22535 c -3.3863,0 -4.26328,0.6293 -4.41632,3.16902 -0.10503,1.74295 -0.58039,10.71807 -1.05634,19.9447 l -0.86537,16.77569 -10.30837,-19.9447 -10.30837,-19.94471 h -6.24093 -6.24092 v 28.87324 28.87324 h 4.18867 4.18866 z m 164.4733,9.32703 v -12.15184 l 5.98592,0.91562 c 6.86727,1.05043 9.41342,3.59141 15.31644,15.28519 3.80252,7.53276 4.43573,8.10287 8.99962,8.10287 2.70011,0 4.90929,-0.65188 4.90929,-1.44861 0,-1.80783 -7.34646,-16.1557 -11.10665,-21.69164 l -2.80262,-4.12616 3.58502,-4.26055 c 3.04142,-3.61452 3.48641,-5.28686 2.93466,-11.02895 -1.11077,-11.56006 -5.90756,-14.43875 -26.06111,-15.64004 l -11.61972,-0.69261 v 29.44428 29.44428 h 4.92958 4.92957 z m 111.26761,0 v -12.15184 l 5.98592,0.94572 c 7.13522,1.1273 9.25433,3.07422 15.45915,14.20303 4.0651,7.29106 5.3329,8.51127 9.23893,8.89206 2.88489,0.28124 4.52727,-0.18772 4.52727,-1.29269 0,-0.95372 -2.87278,-7.0472 -6.38396,-13.54108 l -6.38396,-11.80706 2.86283,-3.6395 c 1.94443,-2.47194 2.86283,-5.7372 2.86283,-10.17842 0,-12.38792 -6.89264,-17.02486 -25.30687,-17.02486 h -11.31284 v 28.87324 28.87324 h 4.22535 4.22535 z m 167.92106,-9.32703 0.3888,-21.47888 11.26761,21.45877 11.2676,21.45877 5.98592,0.0201 5.98591,0.0201 V 461.4425 432.56926 h -4.22535 c -3.3863,0 -4.26327,0.6293 -4.41632,3.16902 -0.10507,1.74295 -0.58038,10.77464 -1.05634,20.07042 l -0.86537,16.90141 -10.23811,-19.93074 -10.23811,-19.93073 -6.31119,-0.50195 L 580,431.84476 v 29.2355 29.2355 h 4.18866 4.18868 z"
       id="path3932"
       inkscape:connector-curvature="0"
       transform="scale(0.26458333)" />
    <path
       style="fill:#f9f9f9;stroke-width:1.40845072"
       d="m 646.19718,461.44252 v -21.7771 l 6.69014,0.87483 c 16.6851,2.18179 21.88129,7.14549 21.88129,20.90227 0,13.75678 -5.19619,18.72049 -21.88129,20.90228 l -6.69014,0.87482 z"
       id="path3934"
       inkscape:connector-curvature="0"
       transform="scale(0.26458333)" />
    <path
       style="fill:#f9f9f9;stroke-width:1.40845072"
       d="m 581.40845,461.44252 v -27.46479 h 4.69608 c 4.62561,0 4.85693,0.31169 15.41775,20.77465 15.91145,30.83052 14.99978,30.65991 15.05265,2.8169 0.043,-22.63765 0.15869,-23.59155 2.86169,-23.59155 2.7206,0 2.8169,0.93897 2.8169,27.46479 v 27.46479 l -4.57746,-0.0245 c -4.48923,-0.024 -4.80824,-0.47177 -16.5493,-23.22943 -6.58451,-12.76273 -12.44718,-23.20947 -13.02817,-23.21498 -0.58098,-0.006 -1.05634,10.44773 -1.05634,23.22942 0,22.30047 -0.11381,23.23944 -2.8169,23.23944 -2.72059,0 -2.8169,-0.93897 -2.8169,-27.46479 z"
       id="path3936"
       inkscape:connector-curvature="0"
       transform="scale(0.26458333)" />
    <path
       style="fill:#f9f9f9;stroke-width:1.40845072"
       d="m 535.50156,487.71874 c -8.70303,-4.07856 -10.43114,-9.71976 -10.43114,-34.0512 0,-18.29141 0.18698,-19.68981 2.63262,-19.68981 3.45181,0 4.3741,5.70415 4.39414,27.1767 0.0147,15.75071 0.195,16.79282 3.4726,20.07042 4.80739,4.80739 14.49964,4.83639 20.0559,0.06 l 3.95178,-3.39711 0.47852,-21.95501 c 0.44693,-20.50519 0.65619,-21.955 3.16902,-21.955 2.52493,0 2.69049,1.25952 2.69049,20.46778 0,22.3376 -1.37724,28.30535 -7.45069,32.28483 -5.60232,3.67079 -16.2605,4.12954 -22.96324,0.9884 z"
       id="path3938"
       inkscape:connector-curvature="0"
       transform="scale(0.26458333)" />
    <path
       style="fill:#f9f9f9;stroke-width:1.40845072"
       d="m 477.88732,487.66684 c -3.09859,-1.42287 -6.80322,-3.90221 -8.2325,-5.50963 -5.85634,-6.58621 -8.12164,-20.6554 -5.0858,-31.58644 4.67691,-16.83992 25.93589,-23.35981 38.93964,-11.94236 6.64636,5.83557 8.88571,11.55061 8.88571,22.67719 0,10.97895 -1.57527,15.57199 -7.41828,21.62957 -7.17169,7.43505 -17.3355,9.21039 -27.08877,4.73167 z m 18.89411,-5.03551 c 12.2729,-6.34657 12.2729,-36.03105 0,-42.37761 -9.53502,-4.93075 -20.63623,-1.01859 -24.69858,8.70399 -2.49493,5.9712 -2.49493,18.99842 0,24.96963 4.06235,9.72257 15.16356,13.63473 24.69858,8.70399 z"
       id="path3940"
       inkscape:connector-curvature="0"
       transform="scale(0.26458333)" />
    <path
       style="fill:#f9f9f9;stroke-width:1.40845072"
       d=""
       id="path3942"
       inkscape:connector-curvature="0"
       transform="scale(0.26458333)" />
    <path
       style="fill:#f9f9f9;stroke-width:1.40845072"
       d="m 483.34405,482.26645 c -10.32746,-1.90214 -14.74499,-24.48844 -7.07812,-36.18957 2.54044,-3.87719 10.34912,-6.64981 15.3197,-5.43954 7.75146,1.88738 12.36111,10.02851 12.35277,21.81628 -0.01,13.57017 -8.76351,21.99188 -20.59435,19.81283 z"
       id="path3944"
       inkscape:connector-curvature="0"
       transform="scale(0.26458333)" />
    <path
       style="fill:#f9f9f9;stroke-width:1.40845072"
       d="m 413.80282,461.44252 v -27.46479 h 10.3532 c 12.86115,0 18.7018,1.94646 21.37973,7.12501 3.45757,6.68619 2.66488,13.62345 -2.1013,18.38962 -4.12537,4.12537 -4.14123,4.20113 -1.44412,6.89824 1.49989,1.49988 4.96939,7.17973 7.71002,12.62189 4.90842,9.74682 4.93528,9.89473 1.79623,9.88878 -2.54521,-0.005 -4.28904,-2.15318 -8.66251,-10.67204 -5.89866,-11.48967 -8.28901,-13.26558 -17.85534,-13.26558 h -5.54211 v 11.97183 c 0,11.03286 -0.22093,11.97183 -2.8169,11.97183 -2.7206,0 -2.8169,-0.93897 -2.8169,-27.46479 z m 20.65429,-2.20079 c 4.99692,-1.89982 6.05796,-3.62702 6.0847,-9.90486 0.0298,-6.99282 -3.40008,-9.70138 -12.79446,-10.10376 l -7.6065,-0.3258 -0.41136,10.91549 -0.41136,10.9155 h 5.60136 c 3.08075,0 7.37267,-0.67346 9.53762,-1.49657 z"
       id="path3946"
       inkscape:connector-curvature="0"
       transform="scale(0.26458333)" />
    <path
       style="fill:#f9f9f9;stroke-width:1.40845072"
       d="m 420.84507,449.42351 v -9.93962 l 5.28169,0.89103 c 2.90493,0.49007 6.39152,1.19552 7.74797,1.56766 5.6522,1.55069 6.63139,11.64773 1.39033,14.33661 -1.34649,0.6908 -5.14182,1.66729 -8.43407,2.16998 l -5.98592,0.91396 z"
       id="path3948"
       inkscape:connector-curvature="0"
       transform="scale(0.26458333)" />
    <path
       style="fill:#f9f9f9;stroke-width:1.40845072"
       d="m 301.12676,461.30656 v -27.60074 l 13.26942,0.48807 c 11.71518,0.4309 13.6923,0.88563 16.87984,3.88234 4.77089,4.48525 6.08567,11.75034 3.21566,17.76882 -1.22025,2.55889 -3.54435,5.07329 -5.16466,5.58755 -2.8521,0.90523 -2.80967,1.09032 1.33089,5.80616 4.26462,4.85714 11.31392,17.45131 11.31392,20.21328 0,0.8004 -1.25964,1.45527 -2.79919,1.45527 -2.051,0 -4.11226,-2.6074 -7.7117,-9.75493 -5.77111,-11.45989 -9.09203,-14.18873 -17.26729,-14.18873 h -6.02464 v 11.97183 c 0,11.83099 -0.0414,11.97183 -3.52112,11.97183 h -3.52113 z m 25.70423,-4.88265 c 3.15317,-3.88895 3.15317,-10.02779 0,-13.86955 -1.89214,-2.30534 -4.26456,-3.07785 -10.21127,-3.32505 l -7.74648,-0.322 -0.41502,11.11903 -0.41502,11.11903 8.1615,-0.84076 c 5.99275,-0.61734 8.81646,-1.64856 10.62629,-3.8807 z"
       id="path3950"
       inkscape:connector-curvature="0"
       transform="scale(0.26458333)" />
    <path
       style="fill:#f9f9f9;stroke-width:1.40845072"
       d="m 309.57746,449.47069 v -10.10675 l 5.98592,0.98136 c 7.75506,1.2714 10.91549,4.16629 10.91549,9.99835 0,5.30701 -1.912,6.75075 -10.91549,8.24221 l -5.98592,0.99159 z"
       id="path3952"
       inkscape:connector-curvature="0"
       transform="scale(0.26458333)" />
    <path
       style="fill:#f9f9f9;stroke-width:1.40845072"
       d=""
       id="path3954"
       inkscape:connector-curvature="0"
       transform="scale(0.26458333)" />
    <path
       style="fill:#f9f9f9;stroke-width:1.40845072"
       d="m 366.61972,487.74256 c -6.55289,-3.12768 -11.16631,-7.76787 -13.28646,-13.36356 -2.11463,-5.58112 -1.86868,-21.30495 0.41889,-26.77987 4.08984,-9.78837 16.73821,-16.13702 28.8439,-14.47775 8.52474,1.16844 13.52121,3.844 14.04622,7.52161 l 0.44508,3.11775 -6.63756,-2.93611 c -5.00878,-2.21562 -8.54471,-2.77795 -14.40953,-2.29159 -6.67438,0.55349 -8.40785,1.33838 -12.27458,5.55771 -9.83142,10.72793 -7.28635,32.90385 4.41346,38.45577 5.11005,2.42488 15.51195,2.80434 20.8841,0.76185 3.27642,-1.24569 3.61282,-2.09814 3.61282,-9.15493 v -7.78134 h -6.33803 c -5.39906,0 -6.33803,-0.41732 -6.33803,-2.8169 0,-2.52799 0.93897,-2.8169 9.15493,-2.8169 h 9.15493 v 12.0437 12.0437 l -5.28006,2.20614 c -8.47966,3.54303 -19.83574,3.84863 -26.41008,0.71072 z"
       id="path3956"
       inkscape:connector-curvature="0"
       transform="scale(0.26458333)" />
    <path
       style="fill:#f9f9f9;stroke-width:1.40845072"
       d="m 202.53521,461.44252 v -21.7771 l 6.69014,0.87483 c 16.6851,2.18179 21.88129,7.14549 21.88129,20.90227 0,13.75678 -5.19619,18.72049 -21.88129,20.90228 l -6.69014,0.87482 z"
       id="path3958"
       inkscape:connector-curvature="0"
       transform="scale(0.26458333)" />
    <path
       style="fill:#f9f9f9;stroke-width:1.40845072"
       d="m 253.23944,461.44252 v -27.46479 h 16.90141 c 15.96244,0 16.9014,0.1565 16.9014,2.8169 0,2.61728 -0.93896,2.81691 -13.24993,2.81691 h -13.24993 l -0.48246,7.86689 c -0.26536,4.32679 -0.21838,8.12961 0.10439,8.45071 0.32277,0.32109 6.18544,0.5838 13.02817,0.5838 11.50235,0 12.44131,0.2126 12.44131,2.81691 0,2.6043 -0.93896,2.8169 -12.44131,2.8169 -6.84273,0 -12.7054,0.26139 -13.02817,0.58087 -0.32277,0.31949 -0.3764,5.07301 -0.11917,10.56339 l 0.46769,9.9825 h 13.96893 c 13.02997,0 13.96893,0.18935 13.96893,2.8169 0,2.66667 -0.93896,2.8169 -17.60563,2.8169 h -17.60563 z"
       id="path3960"
       inkscape:connector-curvature="0"
       transform="scale(0.26458333)" />
    <path
       style="fill:#f9f9f9;stroke-width:1.40845072"
       d="m 195.49296,461.44252 v -27.79241 l 13.767,0.55295 c 10.5656,0.42437 14.90418,1.2171 18.65719,3.40898 16.72396,9.76732 16.72396,37.89364 0,47.66096 -3.75301,2.19188 -8.09159,2.98461 -18.65719,3.40898 l -13.767,0.55296 z m 28.04234,19.93069 c 6.75515,-3.22553 9.2816,-8.65066 9.2816,-19.93069 0,-16.12673 -5.11374,-21.29947 -21.84664,-22.09869 l -9.13927,-0.43652 -0.39143,21.06489 c -0.21529,11.58568 -0.053,21.94676 0.3606,23.02462 0.58919,1.53541 2.65626,1.74728 9.54635,0.97848 4.83689,-0.5397 10.32184,-1.71064 12.18879,-2.60209 z"
       id="path3962"
       inkscape:connector-curvature="0"
       transform="scale(0.26458333)" />
    <path
       style="fill:#f9f9f9;stroke-width:1.40845072"
       d=""
       id="path3964"
       inkscape:connector-curvature="0"
       transform="scale(0.26458333)" />
    <path
       style="fill:#f9f9f9;stroke-width:1.40845072"
       d=""
       id="path3966"
       inkscape:connector-curvature="0"
       transform="scale(0.26458333)" />
    <path
       style="fill:#f9f9f9;stroke-width:1.40845072"
       d=""
       id="path3968"
       inkscape:connector-curvature="0"
       transform="scale(0.26458333)" />
    <path
       style="fill:#f9f9f9;stroke-width:1.40845072"
       d=""
       id="path3970"
       inkscape:connector-curvature="0"
       transform="scale(0.26458333)" />
    <path
       style="fill:#f9f9f9;stroke-width:1.40845072"
       d=""
       id="path3972"
       inkscape:connector-curvature="0"
       transform="scale(0.26458333)" />
    <path
       style="fill:#ffffff;stroke-width:1.40845072"
       d=""
       id="path3974"
       inkscape:connector-curvature="0"
       transform="scale(0.26458333)" />
    <path
       style="fill:#ffffff;stroke-width:1.40845072"
       d="m 91.839588,487.63523 c -8.69917,-3.95076 -10.431137,-9.59069 -10.431137,-33.96769 0,-18.31329 0.184622,-19.68981 2.640845,-19.68981 3.579111,0 4.401408,4.91286 4.401408,26.29642 0,16.69551 0.157718,17.65131 3.457107,20.9507 5.025978,5.02598 15.789539,4.93463 20.593159,-0.17478 3.25809,-3.46549 3.43645,-4.62696 3.89304,-25.35211 0.44666,-20.2741 0.65765,-21.72023 3.16902,-21.72023 2.53152,0 2.69049,1.2776 2.69049,21.6227 0,20.18518 -0.21392,21.94087 -3.21778,26.40845 -5.37159,7.98907 -16.79155,10.35163 -27.196152,5.62635 z"
       id="path3976"
       inkscape:connector-curvature="0"
       transform="scale(0.26458333)" />
    <path
       style="fill:#ffffff;stroke-width:1.40845072"
       d="m 137.74648,461.54048 v -27.56275 h 4.80008 c 4.76366,0 4.88101,0.15798 15.4649,20.81919 15.75619,30.75826 14.84868,30.58942 14.90149,2.77236 0.043,-22.63765 0.1587,-23.59155 2.8617,-23.59155 2.7206,0 2.8169,0.93897 2.8169,27.46479 v 27.46479 l -4.57747,-0.0277 c -4.48919,-0.0272 -4.80832,-0.47566 -16.54929,-23.25657 l -11.97183,-23.22884 -0.70423,22.90445 c -0.68983,22.43641 -0.76898,22.91366 -3.87324,23.35454 l -3.16901,0.45007 z"
       id="path3978"
       inkscape:connector-curvature="0"
       transform="scale(0.26458333)" />
  </g>
</svg>
